Coordinates
version=1
nRows=27
nColumns=38
inDegrees=no

Units are S.I. units (second, meters, Newtons, ...)
If the header above contains a line with 'inDegrees', this indicates whether rotational values are in degrees (yes) or radians (no).

endheader
time	pelvis_tilt	pelvis_list	pelvis_rotation	pelvis_tx	pelvis_ty	pelvis_tz	hip_flexion_r	hip_adduction_r	hip_rotation_r	knee_angle_r	ankle_angle_r	subtalar_angle_r	mtp_angle_r	hip_flexion_l	hip_adduction_l	hip_rotation_l	knee_angle_l	ankle_angle_l	subtalar_angle_l	mtp_angle_l	lumbar_extension	lumbar_bending	lumbar_rotation	arm_flex_r	arm_add_r	arm_rot_r	elbow_flex_r	pro_sup_r	wrist_flex_r	wrist_dev_r	arm_flex_l	arm_add_l	arm_rot_l	elbow_flex_l	pro_sup_l	wrist_flex_l	wrist_dev_l
1.31	1.60145	1.45093	-0.129443	0.703569	0.883413	0.948839	0.110458	0.212735	-0.00820164	0.286029	0.0292783	0	0	0.494827	-0.28679	-0.111026	1.38741	-0.0386791	0	0	-0.0943174	0.11283	-0.000642759	-0.297599	-0.055793	-0.495107	0.443312	1.0827	0	0	-0.173531	-0.335695	0.427593	0.73438	0.769116	0	0
1.32	1.62729	1.45384	-0.162715	0.703934	0.891198	0.949678	0.0930349	0.209473	0.00224229	0.278905	0.0330164	0	0	0.504027	-0.287213	-0.115358	1.36325	-0.028576	0	0	-0.100447	0.109438	0.00735224	-0.294128	-0.0554463	-0.492091	0.444192	1.08119	0	0	-0.172816	-0.33386	0.420508	0.737588	0.777608	0	0
1.33	1.64935	1.45662	-0.192123	0.704247	0.898903	0.95038	0.0772841	0.205969	0.0120318	0.273313	0.037131	0	0	0.512415	-0.287838	-0.120839	1.33588	-0.0189467	0	0	-0.106013	0.106065	0.0151924	-0.290016	-0.0552821	-0.488881	0.443596	1.0798	0	0	-0.17153	-0.331805	0.413798	0.740714	0.785802	0	0
1.34	1.66934	1.4588	-0.218733	0.704471	0.90659	0.950956	0.0618522	0.202898	0.0220654	0.267225	0.04036	0	0	0.51969	-0.289024	-0.127063	1.30534	-0.0100579	0	0	-0.111151	0.103254	0.0212185	-0.289418	-0.0584025	-0.457151	0.451249	1.02469	0	0	-0.171776	-0.328097	0.399455	0.74434	0.806475	0	0
1.35	1.6806	1.46127	-0.235822	0.704617	0.914236	0.951346	0.0485517	0.19945	0.0312164	0.262322	0.0439147	0	0	0.526897	-0.289745	-0.133843	1.27171	-0.00252145	0	0	-0.115151	0.100433	0.0277322	-0.283976	-0.0571848	-0.461433	0.449547	1.03437	0	0	-0.170082	-0.326695	0.395898	0.747576	0.80726	0	0
1.36	1.68605	1.46371	-0.246692	0.704703	0.921859	0.951592	0.0365777	0.196003	0.0402986	0.258223	0.0478226	0	0	0.533489	-0.290772	-0.141987	1.2355	0.00428826	0	0	-0.118403	0.0977743	0.0338411	-0.278739	-0.0562169	-0.463338	0.446367	1.04397	0	0	-0.168032	-0.325364	0.393947	0.748996	0.80964	0	0
1.37	1.68434	1.4663	-0.250157	0.704738	0.929472	0.95167	0.0261743	0.192459	0.0485209	0.255363	0.0525429	0	0	0.539429	-0.291932	-0.151776	1.19654	0.0104114	0	0	-0.120745	0.0951305	0.0396772	-0.273868	-0.05514	-0.465509	0.445011	1.05133	0	0	-0.165571	-0.323875	0.392242	0.750191	0.812532	0	0
1.38	1.678	1.46895	-0.248576	0.704665	0.937041	0.951619	0.0169949	0.188761	0.0557733	0.253675	0.0577642	0	0	0.544547	-0.292937	-0.162944	1.15493	0.0155992	0	0	-0.122693	0.0926701	0.0450425	-0.269455	-0.0539272	-0.467536	0.445309	1.0551	0	0	-0.162689	-0.322027	0.390344	0.750646	0.816506	0	0
1.39	1.66624	1.47124	-0.240477	0.704446	0.94463	0.951449	0.00871455	0.185248	0.0612529	0.252462	0.0630386	0	0	0.549086	-0.293807	-0.174641	1.11094	0.0205381	0	0	-0.124074	0.0908828	0.0492488	-0.265307	-0.0527506	-0.468872	0.446316	1.0555	0	0	-0.159752	-0.320093	0.389071	0.750582	0.820019	0	0
1.4	1.65857	1.47381	-0.236315	0.704166	0.952305	0.951272	-9.90233e-05	0.181069	0.0664782	0.251015	0.0684906	0	0	0.550871	-0.294195	-0.188715	1.06397	0.0256439	0	0	-0.125775	0.0886141	0.0532546	-0.261296	-0.0514747	-0.469795	0.447299	1.05417	0	0	-0.156331	-0.318152	0.388399	0.749652	0.823659	0	0
1.41	1.63646	1.47602	-0.216476	0.703715	0.960012	0.950873	-0.0069611	0.177451	0.069888	0.250454	0.0739381	0	0	0.553602	-0.294427	-0.202994	1.01602	0.030079	0	0	-0.125862	0.0871658	0.055866	-0.257833	-0.0507111	-0.468846	0.446841	1.05535	0	0	-0.153056	-0.316296	0.38886	0.747814	0.826731	0	0
1.42	1.62328	1.47871	-0.20568	0.703189	0.967778	0.950508	-0.0147663	0.172944	0.0733861	0.249932	0.0794756	0	0	0.553246	-0.293817	-0.220604	0.96524	0.0336626	0	0	-0.126896	0.0849193	0.0580286	-0.256997	-0.0522477	-0.44798	0.450659	1.02256	0	0	-0.149689	-0.313595	0.38678	0.744147	0.837954	0	0
1.43	1.59437	1.48098	-0.177639	0.702491	0.975607	0.94989	-0.0207818	0.1691	0.0746285	0.250146	0.0851169	0	0	0.554397	-0.292912	-0.238544	0.914604	0.0378702	0	0	-0.126432	0.0835109	0.0592468	-0.253495	-0.0509787	-0.452636	0.450398	1.03216	0	0	-0.145973	-0.311695	0.388609	0.742094	0.836751	0	0
1.44	1.56692	1.48363	-0.150552	0.701653	0.983585	0.949256	-0.0269089	0.164371	0.0750961	0.250664	0.0916378	0	0	0.553572	-0.290848	-0.259111	0.862325	0.0431137	0	0	-0.125826	0.081558	0.059475	-0.24992	-0.0500824	-0.455707	0.449408	1.0396	0	0	-0.142372	-0.309628	0.390511	0.738912	0.835103	0	0
1.45	1.53554	1.48642	-0.118667	0.700628	0.991665	0.948547	-0.0324838	0.15914	0.0742813	0.251726	0.0986766	0	0	0.552023	-0.287485	-0.281225	0.809434	0.0492861	0	0	-0.12476	0.0795779	0.0585607	-0.246489	-0.0495672	-0.457414	0.447946	1.04544	0	0	-0.138643	-0.30748	0.393603	0.733907	0.833444	0	0
1.46	1.49591	1.48911	-0.0775138	0.699409	0.999828	0.947713	-0.0371744	0.153751	0.0719648	0.253488	0.106161	0	0	0.550509	-0.282898	-0.304059	0.756768	0.0562786	0	0	-0.122895	0.0777623	0.0564374	-0.243422	-0.0494543	-0.458196	0.44658	1.04819	0	0	-0.13484	-0.305042	0.396913	0.727828	0.831942	0	0
1.47	1.44998	1.49191	-0.0293533	0.698027	1.0081	0.946786	-0.0412555	0.147862	0.0684128	0.256002	0.114287	0	0	0.548662	-0.276837	-0.327835	0.704342	0.0638248	0	0	-0.120451	0.0756832	0.0531992	-0.240264	-0.0496968	-0.458425	0.444726	1.05024	0	0	-0.131277	-0.30255	0.400734	0.72063	0.829878	0	0
1.48	1.39894	1.49571	0.0245032	0.696487	1.01647	0.945833	-0.0445634	0.140349	0.0633875	0.259998	0.123677	0	0	0.545434	-0.267644	-0.351709	0.650547	0.0711524	0	0	-0.11765	0.072195	0.0487928	-0.236557	-0.0500876	-0.458383	0.441544	1.05279	0	0	-0.127417	-0.300062	0.405279	0.711798	0.826194	0	0
1.49	1.33404	1.49929	0.0936409	0.694745	1.02487	0.944747	-0.046569	0.132713	0.0568219	0.265285	0.133395	0	0	0.542784	-0.256016	-0.372668	0.596959	0.0790354	0	0	-0.113991	0.0685963	0.0426711	-0.232686	-0.050724	-0.457406	0.4379	1.05105	0	0	-0.123757	-0.298017	0.411386	0.703618	0.814559	0	0
1.5	1.25125	1.50344	0.181793	0.692808	1.03339	0.943573	-0.0473207	0.123741	0.0480597	0.272132	0.143993	0	0	0.539445	-0.240156	-0.388747	0.541338	0.0862624	0	0	-0.109294	0.0638013	0.0347191	-0.229189	-0.0517705	-0.451955	0.434437	1.04275	0	0	-0.120774	-0.295033	0.413518	0.693505	0.812721	0	0
1.51	1.15063	1.50521	0.287561	0.690893	1.042	0.942175	-0.047312	0.116913	0.0417918	0.278657	0.153073	0	0	0.538307	-0.226092	-0.403019	0.490184	0.095273	0	0	-0.103245	0.0606908	0.0270521	-0.226886	-0.0528651	-0.44749	0.433088	1.03639	0	0	-0.118825	-0.292358	0.416056	0.684365	0.81211	0	0
1.52	1.03852	1.51229	0.406757	0.688536	1.05075	0.941158	-0.0482818	0.102657	0.0286809	0.287892	0.165047	0	0	0.526612	-0.196794	-0.398826	0.420285	0.0962455	0	0	-0.0994019	0.051108	0.0173013	-0.216023	-0.0492803	-0.482547	0.417238	1.09499	0	0	-0.11523	-0.290375	0.421075	0.672236	0.805038	0	0
1.53	0.917302	1.51689	0.533477	0.68629	1.0596	0.940048	-0.0495014	0.0907116	0.0189096	0.297384	0.175302	0	0	0.513433	-0.169436	-0.386068	0.350203	0.0955332	0	0	-0.0954278	0.043366	0.00855412	-0.211347	-0.0495421	-0.483713	0.412164	1.09718	0	0	-0.113288	-0.287868	0.422794	0.661747	0.80301	0	0
1.54	0.794481	1.52144	0.66007	0.684118	1.06864	0.939029	-0.0520004	0.0785933	0.0106707	0.307703	0.185026	0	0	0.494315	-0.140851	-0.360403	0.274075	0.088904	0	0	-0.092625	0.0353409	0.00164898	-0.207102	-0.0498872	-0.484898	0.407771	1.09891	0	0	-0.111745	-0.28525	0.423967	0.65194	0.800663	0	0
1.55	0.679196	1.52415	0.777951	0.682158	1.07798	0.93793	-0.0549412	0.068574	0.00376845	0.318506	0.19417	0	0	0.473915	-0.116329	-0.326962	0.201532	0.0791732	0	0	-0.0893537	0.0288057	-0.00348275	-0.203967	-0.0503587	-0.486255	0.403603	1.09972	0	0	-0.111147	-0.282727	0.425104	0.643425	0.798294	0	0
1.56	0.589623	1.52366	0.869611	0.680457	1.08754	0.936606	-0.056235	0.0622625	-0.00156475	0.331129	0.202114	0	0	0.459838	-0.100409	-0.298349	0.147168	0.073512	0	0	-0.0845155	0.0250781	-0.0075064	-0.202003	-0.0509299	-0.487071	0.399551	1.10026	0	0	-0.111674	-0.280515	0.426673	0.635868	0.79613	0	0
1.57	0.539059	1.52157	0.922039	0.678936	1.09723	0.935191	-0.0571886	0.0588965	-0.00449973	0.344562	0.208114	0	0	0.455326	-0.0926054	-0.284151	0.120302	0.077163	0	0	-0.0793295	0.0233478	-0.0107882	-0.20102	-0.0515102	-0.487225	0.396491	1.10063	0	0	-0.113008	-0.278771	0.428945	0.628696	0.794286	0	0
